{
    "asset" : {
        "generator" : "Khronos glTF Blender I/O v3.4.50",
        "version" : "2.0"
    },
    "scene" : 0,
    "scenes" : [
        {
            "name" : "Scene",
            "nodes" : [
                1
            ]
        }
    ],
    "nodes" : [
        {
            "mesh" : 0,
            "name" : "gear_16",
            "translation" : [
                0,
                -0.005982756614685059,
                0
            ]
        },
        {
            "children" : [
                0
            ],
            "name" : "gear_16_grp"
        }
    ],
    "materials" : [
        {
            "doubleSided" : true,
            "name" : "gear_16_mat.001",
            "normalTexture" : {
                "index" : 0
            },
            "occlusionTexture" : {
                "index" : 1
            },
            "pbrMetallicRoughness" : {
                "baseColorTexture" : {
                    "index" : 2
                },
                "metallicRoughnessTexture" : {
                    "index" : 1
                }
            }
        }
    ],
    "meshes" : [
        {
            "name" : "Mesh",
            "primitives" : [
                {
                    "attributes" : {
                        "POSITION" : 0,
                        "TEXCOORD_0" : 1,
                        "NORMAL" : 2
                    },
                    "indices" : 3,
                    "material" : 0
                }
            ]
        }
    ],
    "textures" : [
        {
            "sampler" : 0,
            "source" : 0
        },
        {
            "sampler" : 0,
            "source" : 1
        },
        {
            "sampler" : 0,
            "source" : 2
        }
    ],
    "images" : [
        {
            "mimeType" : "image/png",
            "name" : "gear_16_mat_Normal",
            "uri" : "gear_16_mat_Normal.png"
        },
        {
            "mimeType" : "image/png",
            "name" : "gear_16_mat_AO-gear_16_mat_Roughness-gear_16_mat_Metallic",
            "uri" : "gear_16_mat_AO-gear_16_mat_Roughness-gear_16_mat_Metallic.png"
        },
        {
            "mimeType" : "image/png",
            "name" : "gear_16_mat_BaseColor",
            "uri" : "gear_16_mat_BaseColor.png"
        }
    ],
    "accessors" : [
        {
            "bufferView" : 0,
            "componentType" : 5126,
            "count" : 16702,
            "max" : [
                1.866950511932373,
                3.738983631134033,
                0.29078787565231323
            ],
            "min" : [
                -1.866950511932373,
                0.005082845687866211,
                -0.29078787565231323
            ],
            "type" : "VEC3"
        },
        {
            "bufferView" : 1,
            "componentType" : 5126,
            "count" : 16702,
            "type" : "VEC2"
        },
        {
            "bufferView" : 2,
            "componentType" : 5126,
            "count" : 16702,
            "type" : "VEC3"
        },
        {
            "bufferView" : 3,
            "componentType" : 5123,
            "count" : 83760,
            "type" : "SCALAR"
        }
    ],
    "bufferViews" : [
        {
            "buffer" : 0,
            "byteLength" : 200424,
            "byteOffset" : 0,
            "target" : 34962
        },
        {
            "buffer" : 0,
            "byteLength" : 133616,
            "byteOffset" : 200424,
            "target" : 34962
        },
        {
            "buffer" : 0,
            "byteLength" : 200424,
            "byteOffset" : 334040,
            "target" : 34962
        },
        {
            "buffer" : 0,
            "byteLength" : 167520,
            "byteOffset" : 534464,
            "target" : 34963
        }
    ],
    "samplers" : [
        {
            "magFilter" : 9729,
            "minFilter" : 9987
        }
    ],
    "buffers" : [
        {
            "byteLength" : 701984,
            "uri" : "gear_16.bin"
        }
    ]
}
